<svg width="16" height="16" viewBox="0 0 16 16" fill="none" xmlns="http://www.w3.org/2000/svg">
<path d="M15.1825 0.818331C14.6584 0.294358 13.9476 0 13.2064 0C12.4653 0 11.7545 0.294358 11.2304 0.818331L1.34727 10.7023C1.05906 10.9903 0.860199 11.3555 0.774617 11.7538L0.0127907 15.3083C-0.00729982 15.4017 -0.00367614 15.4986 0.0233306 15.5902C0.0503374 15.6817 0.0998663 15.7651 0.167392 15.8326C0.234918 15.9001 0.318288 15.9497 0.409886 15.9767C0.501484 16.0037 0.598389 16.0073 0.691748 15.9872L4.24656 15.2255C4.64494 15.1399 5.01011 14.941 5.29814 14.6528L13.8594 6.09235L14.0166 6.25007C14.1773 6.41082 14.2676 6.62881 14.2676 6.85611C14.2676 7.08341 14.1773 7.3014 14.0166 7.46214L12.741 8.73822C12.6368 8.846 12.5792 8.99035 12.5805 9.14019C12.5818 9.29002 12.642 9.43335 12.7479 9.5393C12.8539 9.64526 12.9972 9.70536 13.1471 9.70666C13.2969 9.70796 13.4413 9.65036 13.5491 9.54627L14.8247 8.27076C15.0105 8.08503 15.1578 7.86453 15.2583 7.62185C15.3589 7.37917 15.4106 7.11907 15.4106 6.8564C15.4106 6.59372 15.3589 6.33362 15.2583 6.09094C15.1578 5.84826 15.0105 5.62776 14.8247 5.44203L14.6675 5.2843L15.1819 4.76942C15.7057 4.24539 16 3.5348 16 2.79387C16 2.05295 15.7063 1.34236 15.1825 0.818331ZM12.0386 1.62638C12.3511 1.33088 12.7665 1.16892 13.1966 1.17495C13.6266 1.18097 14.0374 1.35451 14.3415 1.65865C14.6456 1.96279 14.819 2.37354 14.8249 2.80357C14.8309 3.2336 14.6688 3.64897 14.3732 3.96137L4.49059 13.8448C4.35813 13.9772 4.19023 14.0685 4.00709 14.1077L1.3147 14.6854L1.89192 11.9938C1.93112 11.8107 2.02242 11.6428 2.15482 11.5104L12.0386 1.62638Z" fill="black"/>
</svg>
